<svg xmlns="http://www.w3.org/2000/svg" width="19.929" height="20" viewBox="0 0 19.929 20">
  <g id="Circle_Button_SIZE_MEDIUM_STATE_DEFAULT_STYLE_STYLE3_" data-name="Circle Button [SIZE=MEDIUM][STATE=DEFAULT][STYLE=STYLE3]" transform="translate(-8.067 -8.102)">
    <g id="Icon_ICON_feather_phone_SIZE_MEDIUM_STATE_DEFAULT_STYLE_STYLE3_" data-name="Icon [ICON=feather/phone][SIZE=MEDIUM][STATE=DEFAULT][STYLE=STYLE3]" transform="translate(8.067 8.102)">
      <rect id="Area_ICON:feather_phone_SIZE:MEDIUM_STATE:DEFAULT_STYLE:STYLE3_" data-name="Area [ICON:feather/phone][SIZE:MEDIUM][STATE:DEFAULT][STYLE:STYLE3]" width="19.743" height="19.743" transform="translate(0.186 0.256)" fill="#163659" opacity="0"/>
      <g id="Icon" transform="translate(0 0)">
        <path id="f1f50f81-1efc-46dc-9a8d-d3a8fea07204" d="M20.764,15.994v2.813a1.875,1.875,0,0,1-2.044,1.875A18.563,18.563,0,0,1,10.63,17.8a18.28,18.28,0,0,1-5.624-5.625A18.547,18.547,0,0,1,2.127,4.051,1.874,1.874,0,0,1,3.993,2.007H6.805A1.875,1.875,0,0,1,8.68,3.619a12.08,12.08,0,0,0,.656,2.635,1.873,1.873,0,0,1-.421,1.977L7.724,9.423a15,15,0,0,0,5.625,5.624l1.19-1.19a1.875,1.875,0,0,1,1.978-.422,12.02,12.02,0,0,0,2.634.657A1.874,1.874,0,0,1,20.764,15.994Z" transform="translate(-2.12 -2.007)" fill="#163659"/>
      </g>
    </g>
  </g>
</svg>
