<svg xmlns="http://www.w3.org/2000/svg" width="31" height="31" viewBox="0 0 31 31">
  <g id="Circle_Button_SIZE_MEDIUM_STATE_DEFAULT_STYLE_STYLE3_" data-name="Circle Button [SIZE=MEDIUM][STATE=DEFAULT][STYLE=STYLE3]" transform="translate(0.076 0)">
    <rect id="Area_SIZE:MEDIUM_STATE:DEFAULT_STYLE:STYLE3_" data-name="Area [SIZE:MEDIUM][STATE:DEFAULT][STYLE:STYLE3]" width="31" height="31" rx="15.5" transform="translate(-0.076 0)" fill="#163659"/>
    <g id="Icon_ICON_feather_twitter_SIZE_MEDIUM_STATE_DEFAULT_STYLE_STYLE3_" data-name="Icon [ICON=feather/twitter][SIZE=MEDIUM][STATE=DEFAULT][STYLE=STYLE3]" transform="translate(9.177 8.883)">
      <rect id="Area_ICON:feather_twitter_SIZE:MEDIUM_STATE:DEFAULT_STYLE:STYLE3_" data-name="Area [ICON:feather/twitter][SIZE:MEDIUM][STATE:DEFAULT][STYLE:STYLE3]" width="14" height="13" transform="translate(-0.253 0.118)" fill="#fcfdff" opacity="0"/>
      <g id="Icon" transform="translate(0 1.408)">
        <path id="_6a862b22-5b8f-42e1-a0e9-b21fa7350a02" data-name="6a862b22-5b8f-42e1-a0e9-b21fa7350a02" d="M14.051,2.724a6.5,6.5,0,0,1-1.875.914A2.677,2.677,0,0,0,7.48,5.43v.6A6.368,6.368,0,0,1,2.1,3.321S-.286,8.7,5.091,11.088A6.959,6.959,0,0,1,.909,12.282c5.377,2.987,11.948,0,11.948-6.87a2.665,2.665,0,0,0-.048-.5A4.611,4.611,0,0,0,14.051,2.724Z" transform="translate(-0.909 -2.718)" fill="#fcfdff"/>
      </g>
    </g>
  </g>
</svg>
